<svg width="401" height="328" fill="none" xmlns="http://www.w3.org/2000/svg"><path d="M398.735 205.635a236.264 236.264 0 00-19.044-8.482 153.5 153.5 0 00.889-16.473c0-12.326-2.081-24.685-5.975-37.019 8.261-3.624 16.538-7.788 24.424-12.571 1.926-1.167 2.539-3.682 1.371-5.616-1.192-1.927-3.706-2.523-5.616-1.372-7.322 4.457-15.077 8.359-22.848 11.78-5.184-13.567-12.637-27.085-22.473-40.48 10.147-8.98 30.815-34.147 30.815-90.104 0-2.204-1.738-4-3.942-4.082-3.78-.122-91.01-2.946-115.597 23.6-13.991-4.523-27.917-6.294-38.66-7.33-2.204-.14-4.236 1.428-4.457 3.673a4.095 4.095 0 003.673 4.457c16.531 1.591 28.326 3.934 39.436 7.812 9.624 3.363 20.612 8.767 32.652 16.056.653.4 1.388.588 2.114.588a4.09 4.09 0 003.217-1.56c1.983-2.522 4.326-4.938 7.371-7.607a4.076 4.076 0 00.4-5.755 4.054 4.054 0 00-5.755-.4c-2.359 2.049-4.351 3.992-6.114 5.95-9.151-5.387-17.485-9.558-25.306-12.725 12.31-10.229 38.579-15.11 63.06-17.257-4.996 2-10.049 4.376-14.955 7.314a4.08 4.08 0 00-1.404 5.6 4.073 4.073 0 003.502 1.984c.718 0 1.437-.18 2.098-.58 19.33-11.55 41.272-14.587 50.455-15.38-1.118 55.697-23.623 76.61-30.635 81.762a4.093 4.093 0 00-1.625 2.71 4.116 4.116 0 00.8 3.061c10.579 13.869 18.547 27.844 23.861 41.827-31.738 12.743-61.664 17.502-62.056 17.559a4.088 4.088 0 00-3.412 4.653 4.082 4.082 0 004.653 3.412c1.641-.253 31.33-4.947 63.41-17.82 3.502 11.322 5.355 22.62 5.355 33.86 0 4.588-.293 9.061-.71 13.486-37.852-13.412-67.614-13.437-68.683-13.502-2.253.008-4.082 1.845-4.074 4.09a4.086 4.086 0 004.082 4.073h.016c.588 0 30.342.196 67.508 13.64-11.085 70.774-76.316 116.985-169.562 116.985-93.246 0-158.477-46.211-169.562-116.993 37.207-13.444 67.05-13.64 67.516-13.64h.008a4.094 4.094 0 004.09-4.074 4.093 4.093 0 00-4.073-4.089c-1.666-.057-31.101.09-68.692 13.477-.416-4.416-.71-8.873-.71-13.453 0-11.061 1.942-22.334 5.6-33.754 31.99 12.792 61.524 17.469 63.165 17.722a4.084 4.084 0 004.661-3.412 4.078 4.078 0 00-3.412-4.653c-.392-.057-30.113-4.775-61.72-17.42 5.313-13.64 13.158-27.477 23.558-41.419.71-.955.971-2.188.702-3.347a4.093 4.093 0 00-2.09-2.71c-.302-.163-29.174-15.991-30.407-82.038 9.142.767 31.566 3.771 50.994 15.395.661.4 1.38.58 2.09.58 1.388 0 2.743-.71 3.51-1.984a4.088 4.088 0 00-1.404-5.6c-5.616-3.355-11.453-6.024-17.175-8.179 25.395 1.771 53.166 6.612 65.598 18.008-7.657 3.102-15.861 7.224-25.289 12.791-1.91-2.13-4.057-4.032-6.147-5.894-1.689-1.493-4.277-1.346-5.763.343a4.089 4.089 0 00.343 5.763c2.792 2.482 5.428 4.816 7.273 7.445a4.074 4.074 0 005.453 1.16c12.612-7.641 22.914-12.743 32.399-16.057 11.102-3.886 22.906-6.22 39.46-7.813a4.085 4.085 0 003.674-4.456c-.213-2.245-2.229-3.805-4.449-3.674-10.735 1.037-24.636 2.808-38.579 7.298C117.135-3.681 29.106.988 25.269 1.216a4.101 4.101 0 00-3.861 4.082c0 60.3 21.828 83.801 30.954 90.985-9.567 13.33-16.849 26.603-21.991 39.746-7.878-3.453-15.747-7.412-23.175-11.927a4.1 4.1 0 00-5.608 1.372c-1.176 1.926-.555 4.44 1.363 5.616 7.96 4.841 16.326 9.028 24.669 12.677-4.05 12.449-6.212 24.775-6.212 36.913 0 5.608.31 11.102.89 16.465a239.16 239.16 0 00-19.045 8.498 4.089 4.089 0 00-1.828 5.477 4.116 4.116 0 003.657 2.253c.612 0 1.232-.139 1.82-.432a223.87 223.87 0 0116.718-7.51c12.383 73.989 80.43 122.184 177.374 122.184 96.952 0 164.991-48.195 177.366-122.184a223.951 223.951 0 0116.718 7.51 4.08 4.08 0 005.477-1.821 4.092 4.092 0 00-1.82-5.485z" fill="#000"/><path d="M169.207 175.08c-44.562 7.363-74.332 29.044-74.332 54.489 0 32.039 46.611 57.141 106.119 57.141s106.119-25.102 106.119-57.141c0-25.445-29.77-47.126-74.332-54.489-1.445-4.424-4.743-7.51-9.975-9.126-5.535-1.714-12.555-1.722-20.587-1.706h-2.441c-8.008.033-15.061-.008-20.587 1.706-5.241 1.608-8.547 4.702-9.984 9.126zm129.743 54.489c0 26.546-44.856 48.978-97.956 48.978s-97.956-22.432-97.956-48.978c0-20.62 26.742-39.224 65.557-46.113 2.155 14.007 19.314 25.493 28.318 28.782v17.437c-15.902-.58-29.534-4.359-39.248-8.057-.204-.114-.425-.172-.645-.253-9.363-3.625-14.947-7.078-15.061-7.151-1.91-1.192-4.432-.629-5.632 1.265a4.09 4.09 0 001.257 5.633c.481.302 5.902 3.681 14.971 7.33 3.387 8.751 15.926 33.779 48.521 33.779 32.407 0 44.945-24.963 48.349-33.746 9.135-3.657 14.612-7.053 15.094-7.355 1.902-1.2 2.481-3.722 1.273-5.624-1.184-1.894-3.698-2.466-5.624-1.274-.115.074-5.706 3.502-15.061 7.118-.278.09-.547.163-.8.31-9.738 3.69-23.371 7.453-39.231 8.025v-17.388c9.077-3.191 26.211-14.513 28.317-28.831 38.815 6.889 65.557 25.493 65.557 46.113zm-97.956 8.375c14.498 0 27.289-2.555 37.558-5.673-5.273 9.158-16.359 21.787-37.476 21.787-21.24 0-32.367-12.645-37.648-21.804 10.253 3.127 23.044 5.69 37.566 5.69zm-2.384-65.541h3.609c7.175-.008 13.828-.008 18.17 1.339 3.715 1.151 5.094 2.996 5.094 6.824 0 12.416-20.66 24.032-24.326 24.497-4.098-.539-24.652-12.057-24.652-24.497 0-3.828 1.38-5.673 5.094-6.824 4.106-1.274 10.334-1.339 17.011-1.339z" fill="#000"/><path d="M260.707 164.232a4.156 4.156 0 003.02 0c1.771-.71 43.386-17.73 43.386-57.109 0-13.501-10.987-24.489-24.489-24.489-8.506 0-16.016 4.36-20.407 10.971-4.392-6.612-11.902-10.97-20.408-10.97-13.501 0-24.489 10.987-24.489 24.488 0 39.379 41.615 56.399 43.387 57.109zm-18.898-73.435c8.996 0 16.326 7.323 16.326 16.326a4.084 4.084 0 004.082 4.082 4.083 4.083 0 004.081-4.082c0-9.004 7.322-16.326 16.326-16.326 8.996 0 16.326 7.323 16.326 16.326 0 29.91-29.648 45.542-36.741 48.848-7.102-3.29-36.726-18.849-36.726-48.848 0-9.004 7.322-16.326 16.326-16.326zm-81.63-8.163c-8.514 0-16.016 4.36-20.408 10.971-4.391-6.612-11.901-10.97-20.407-10.97-13.502 0-24.49 10.987-24.49 24.488 0 39.379 41.616 56.399 43.387 57.109.49.188.996.285 1.51.285.515 0 1.021-.097 1.511-.285 1.771-.71 43.386-17.73 43.386-57.109 0-13.501-10.987-24.489-24.489-24.489zm-20.416 73.337c-7.102-3.29-36.725-18.849-36.725-48.848 0-9.004 7.322-16.326 16.326-16.326 9.004 0 16.326 7.323 16.326 16.326a4.083 4.083 0 004.081 4.082 4.084 4.084 0 004.082-4.082c0-9.004 7.322-16.326 16.326-16.326 9.004 0 16.326 7.323 16.326 16.326 0 29.91-29.64 45.542-36.742 48.848z" fill="red"/><path d="M200.994 25.583c1.371 0 2.751.016 4.131.049h.089a4.085 4.085 0 004.082-3.984 4.085 4.085 0 00-3.984-4.18 191.045 191.045 0 00-4.31-.048l-3.91.033a4.085 4.085 0 00-4.008 4.163c.041 2.245 1.845 3.942 4.155 4l3.755-.033z" fill="#000"/></svg>