<svg width="567" height="298" fill="none" xmlns="http://www.w3.org/2000/svg"><g clip-path="url(#clip0)" fill="#000"><path d="M111.881 59.132a5.426 5.426 0 00-5.421 5.419 5.426 5.426 0 005.421 5.42 5.427 5.427 0 005.421-5.42 5.427 5.427 0 00-5.421-5.42z"/><path d="M142.759 7.251a2.507 2.507 0 00-2.805 1.472l-7.238 17.012c-.344-.03-.685-.044-1.024-.044H40.895L32.737 6.523a2.505 2.505 0 00-4.808.982v88.49c0 7.209 5.865 13.071 13.07 13.071h32.29c-6.886 4.236-11.56 11.693-11.916 20.268-2.46 2.551-12.76 12.353-26.161 12.865-8.964.338-17.597-3.543-25.715-11.545a2.503 2.503 0 10-3.513 3.568c9.14 9.011 19.08 13.362 29.42 12.982 11.509-.438 20.781-6.627 25.917-10.972v16.263a2.505 2.505 0 005.008 0v-22.123c0-7.671 4.346-14.339 10.696-17.699v39.819a2.504 2.504 0 105.009 0v-41.657a20.02 20.02 0 014.312-.481c1.984 0 3.895.302 5.705.838v41.298a2.504 2.504 0 105.008 0v-38.997c5.583 3.557 9.304 9.785 9.304 16.879v22.12a2.503 2.503 0 105.008 0v-22.12c0-9.009-4.803-16.9-11.968-21.307h32.289c7.208 0 13.071-5.863 13.071-13.071V9.705a2.508 2.508 0 00-2.004-2.454zM60.811 74.98c-5.75 0-10.43-4.677-10.43-10.428 0-5.75 4.68-10.428 10.43-10.428S71.24 58.801 71.24 64.551s-4.677 10.428-10.43 10.428zm26.231 26.959c-5.524 0-10.017-4.492-10.017-10.017a2.504 2.504 0 115.009 0c0 1.878 1.051 3.498 2.584 4.356a2.607 2.607 0 01-.08-.6v-7.984l-5.195-.384a2.508 2.508 0 01-2.312-2.684 2.516 2.516 0 012.684-2.312l7.327.543 7.327-.543c1.41-.077 2.584.934 2.684 2.312a2.508 2.508 0 01-2.312 2.684l-5.195.384v7.984c0 .209-.033.406-.08.6 1.533-.858 2.584-2.478 2.584-4.356a2.504 2.504 0 115.009 0c0 5.525-4.492 10.017-10.017 10.017zm24.839-26.959c-5.749 0-10.43-4.677-10.43-10.428 0-5.75 4.681-10.428 10.43-10.428 5.75 0 10.429 4.678 10.429 10.428 0 5.75-4.679 10.428-10.429 10.428z"/><path d="M60.81 59.132a5.427 5.427 0 00-5.42 5.419 5.427 5.427 0 005.42 5.42 5.427 5.427 0 005.421-5.42 5.427 5.427 0 00-5.42-5.42z"/></g><path d="M214.819 111.021c0-4.15-1.465-7.324-4.394-9.521-2.93-2.246-8.203-4.59-15.821-7.031-7.617-2.49-13.647-4.932-18.09-7.325-12.11-6.542-18.164-15.356-18.164-26.44 0-5.762 1.611-10.889 4.834-15.38 3.271-4.542 7.934-8.082 13.989-10.62 6.103-2.54 12.939-3.81 20.508-3.81 7.617 0 14.404 1.392 20.361 4.175 5.957 2.735 10.571 6.616 13.843 11.646 3.32 5.03 4.98 10.742 4.98 17.138h-21.972c0-4.882-1.539-8.666-4.615-11.352-3.076-2.734-7.397-4.102-12.964-4.102-5.371 0-9.545 1.148-12.524 3.443-2.978 2.246-4.468 5.224-4.468 8.935 0 3.467 1.734 6.372 5.2 8.716 3.516 2.344 8.667 4.541 15.455 6.592 12.5 3.76 21.606 8.423 27.319 13.99 5.713 5.566 8.569 12.499 8.569 20.8 0 9.229-3.491 16.479-10.473 21.753-6.983 5.225-16.382 7.837-28.199 7.837-8.203 0-15.673-1.489-22.412-4.468-6.738-3.027-11.889-7.153-15.454-12.378-3.515-5.224-5.273-11.279-5.273-18.164H177.1c0 11.768 7.031 17.651 21.093 17.651 5.225 0 9.302-1.049 12.232-3.149 2.929-2.148 4.394-5.127 4.394-8.936zm106.934-10.913c0 12.207-2.783 21.997-8.35 29.371-5.517 7.324-12.988 10.986-22.412 10.986-8.008 0-14.477-2.783-19.409-8.35v37.354h-21.167V59.752h19.629l.732 7.764c5.127-6.153 11.817-9.229 20.069-9.229 9.765 0 17.358 3.613 22.778 10.84 5.42 7.227 8.13 17.188 8.13 29.883v1.098zm-21.167-1.538c0-7.373-1.318-13.061-3.955-17.065-2.588-4.004-6.372-6.006-11.353-6.006-6.64 0-11.206 2.54-13.696 7.617v32.446c2.588 5.225 7.202 7.837 13.843 7.837 10.107 0 15.161-8.276 15.161-24.829zM380.859 139c-.976-1.904-1.684-4.272-2.124-7.104-5.127 5.712-11.792 8.569-19.995 8.569-7.763 0-14.209-2.246-19.336-6.738-5.078-4.493-7.617-10.157-7.617-16.993 0-8.398 3.101-14.843 9.302-19.336 6.25-4.492 15.259-6.762 27.026-6.811h9.741v-4.541c0-3.662-.952-6.592-2.856-8.79-1.855-2.196-4.81-3.295-8.862-3.295-3.565 0-6.372.854-8.423 2.563-2.002 1.71-3.003 4.053-3.003 7.032h-21.167c0-4.59 1.416-8.838 4.248-12.745 2.832-3.906 6.836-6.958 12.012-9.155 5.175-2.246 10.986-3.369 17.431-3.369 9.766 0 17.505 2.466 23.218 7.398 5.762 4.882 8.643 11.767 8.643 20.654v34.35c.049 7.52 1.098 13.208 3.149 17.066V139h-21.387zm-17.505-14.722c3.125 0 6.006-.683 8.643-2.05 2.637-1.416 4.59-3.296 5.859-5.64v-13.623h-7.91c-10.595 0-16.235 3.662-16.919 10.986l-.073 1.245c0 2.637.928 4.81 2.783 6.519 1.856 1.709 4.395 2.563 7.617 2.563zm84.961-.879c3.907 0 7.081-1.074 9.522-3.222 2.441-2.149 3.711-5.005 3.809-8.57h19.848c-.049 5.372-1.514 10.303-4.394 14.795-2.881 4.444-6.836 7.91-11.866 10.401-4.98 2.441-10.498 3.662-16.552 3.662-11.328 0-20.264-3.589-26.807-10.767-6.543-7.226-9.814-17.187-9.814-29.883v-1.391c0-12.207 3.247-21.948 9.741-29.224 6.494-7.275 15.405-10.913 26.733-10.913 9.912 0 17.847 2.832 23.804 8.496 6.006 5.615 9.057 13.11 9.155 22.486h-19.848c-.098-4.102-1.368-7.422-3.809-9.961-2.441-2.588-5.664-3.882-9.668-3.882-4.932 0-8.667 1.806-11.206 5.42-2.49 3.564-3.735 9.375-3.735 17.431v2.198c0 8.154 1.245 14.013 3.735 17.578 2.49 3.564 6.274 5.346 11.352 5.346zm81.739 17.066c-11.621 0-21.094-3.565-28.418-10.694-7.276-7.128-10.913-16.625-10.913-28.491v-2.05c0-7.96 1.538-15.064 4.614-21.314 3.076-6.299 7.422-11.133 13.037-14.502 5.664-3.418 12.109-5.127 19.336-5.127 10.84 0 19.36 3.418 25.561 10.254 6.25 6.836 9.375 16.528 9.375 29.077v8.643h-50.463c.683 5.176 2.734 9.326 6.152 12.451 3.467 3.125 7.837 4.687 13.11 4.687 8.155 0 14.527-2.954 19.117-8.862l10.4 11.646c-3.174 4.492-7.471 8.007-12.891 10.546-5.42 2.491-11.425 3.736-18.017 3.736zm-2.417-65.04c-4.199 0-7.617 1.417-10.254 4.249-2.588 2.832-4.248 6.885-4.981 12.158h29.444v-1.684c-.098-4.688-1.367-8.301-3.809-10.84-2.441-2.588-5.908-3.882-10.4-3.882zm-343.4 150.053c-.83 11.474-5.078 20.507-12.744 27.099-7.617 6.592-17.676 9.888-30.176 9.888-13.671 0-24.438-4.59-32.299-13.77-7.813-9.228-11.72-21.875-11.72-37.939v-6.519c0-10.254 1.808-19.287 5.421-27.099 3.613-7.813 8.764-13.794 15.454-17.945 6.738-4.199 14.551-6.298 23.437-6.298 12.305 0 22.217 3.295 29.737 9.887 7.519 6.592 11.865 15.845 13.037 27.759h-21.973c-.537-6.885-2.466-11.865-5.786-14.941-3.271-3.125-8.276-4.688-15.015-4.688-7.324 0-12.817 2.637-16.479 7.91-3.613 5.225-5.469 13.355-5.567 24.39v8.057c0 11.523 1.734 19.946 5.201 25.268 3.515 5.322 9.033 7.984 16.552 7.984 6.787 0 11.841-1.539 15.162-4.615 3.369-3.125 5.297-7.934 5.786-14.428h21.972zM243.197 261c-.976-1.904-1.684-4.272-2.124-7.104-5.127 5.712-11.792 8.569-19.995 8.569-7.764 0-14.209-2.246-19.336-6.738-5.078-4.493-7.617-10.157-7.617-16.993 0-8.398 3.101-14.843 9.302-19.336 6.25-4.492 15.259-6.762 27.026-6.811h9.741v-4.541c0-3.662-.952-6.592-2.856-8.789-1.856-2.197-4.81-3.296-8.862-3.296-3.565 0-6.372.854-8.423 2.563-2.002 1.709-3.003 4.053-3.003 7.032h-21.167c0-4.59 1.416-8.838 4.248-12.744 2.832-3.907 6.836-6.958 12.012-9.156 5.175-2.246 10.986-3.369 17.431-3.369 9.766 0 17.505 2.466 23.218 7.398 5.762 4.882 8.643 11.767 8.643 20.654v34.35c.048 7.52 1.098 13.208 3.149 17.066V261h-21.387zm-17.505-14.722c3.125 0 6.006-.683 8.643-2.05 2.637-1.416 4.59-3.296 5.859-5.64v-13.623h-7.91c-10.596 0-16.235 3.662-16.919 10.986l-.073 1.245c0 2.637.928 4.81 2.783 6.519 1.856 1.709 4.395 2.563 7.617 2.563zm77.344-84.008v19.482h13.55v15.527h-13.55v39.551c0 2.93.562 5.029 1.685 6.299 1.123 1.269 3.271 1.904 6.445 1.904 2.344 0 4.419-.171 6.226-.512v16.04a43.597 43.597 0 01-12.818 1.904c-14.844 0-22.412-7.495-22.705-22.486v-42.7h-11.572v-15.527h11.572V162.27h21.167zm68.262 76.831c0-2.588-1.294-4.615-3.882-6.08-2.539-1.513-6.641-2.856-12.305-4.028-18.847-3.955-28.271-11.963-28.271-24.023 0-7.032 2.905-12.891 8.716-17.578 5.859-4.737 13.501-7.105 22.924-7.105 10.059 0 18.091 2.368 24.097 7.105 6.055 4.736 9.082 10.888 9.082 18.457h-21.167c0-3.028-.976-5.518-2.93-7.471-1.953-2.002-5.004-3.003-9.155-3.003-3.564 0-6.323.806-8.276 2.417-1.953 1.611-2.93 3.662-2.93 6.152 0 2.344 1.099 4.248 3.296 5.713 2.246 1.416 6.006 2.661 11.279 3.736 5.274 1.025 9.717 2.197 13.33 3.515 11.182 4.102 16.773 11.206 16.773 21.314 0 7.226-3.101 13.086-9.302 17.578-6.201 4.443-14.209 6.665-24.023 6.665-6.641 0-12.549-1.172-17.725-3.516-5.127-2.392-9.155-5.639-12.085-9.741-2.93-4.15-4.394-8.618-4.394-13.403h20.068c.195 3.759 1.587 6.64 4.175 8.642s6.054 3.003 10.4 3.003c4.053 0 7.105-.757 9.155-2.27 2.1-1.563 3.15-3.589 3.15-6.079z" fill="#000"/><defs><clipPath id="clip0"><path fill="#fff" transform="translate(0 5)" d="M0 0h150v150H0z"/></clipPath></defs></svg>