<svg width="727" height="376" fill="none" xmlns="http://www.w3.org/2000/svg"><g clip-path="url(#clip0)" fill="#000"><path d="M223.761 108.264c-5.977 0-10.842 4.861-10.842 10.838 0 5.977 4.865 10.839 10.842 10.839s10.842-4.862 10.842-10.839c.001-5.977-4.864-10.838-10.842-10.838z"/><path d="M285.517 4.502a5.01 5.01 0 00-5.608 2.945l-14.478 34.022a24.036 24.036 0 00-2.048-.088H81.79L65.475 3.048A4.994 4.994 0 0059.866.104a5.01 5.01 0 00-4.008 4.908v176.981c0 14.416 11.73 26.142 26.142 26.142h64.579c-13.773 8.471-23.122 23.386-23.833 40.534-4.921 5.103-25.519 24.707-52.322 25.731-17.928.675-35.194-7.085-51.43-23.09a5.007 5.007 0 10-7.026 7.135c18.28 18.022 38.16 26.725 58.84 25.965 23.018-.877 41.562-13.255 51.834-21.944v32.526a5.008 5.008 0 1010.017 0v-44.246c0-15.342 8.69-28.678 21.391-35.398v79.637a5.008 5.008 0 005.009 5.009 5.008 5.008 0 005.009-5.009v-83.313a39.986 39.986 0 018.624-.962c3.969 0 7.791.604 11.41 1.676v82.596a5.008 5.008 0 0010.017 0v-77.995c11.165 7.116 18.606 19.571 18.606 33.759v44.239a5.008 5.008 0 005.009 5.009 5.008 5.008 0 005.009-5.009v-44.239c0-18.019-9.607-33.801-23.938-42.614h64.579c14.416 0 26.142-11.727 26.142-26.142V9.41a5.015 5.015 0 00-4.009-4.908zM121.621 139.958c-11.5 0-20.859-9.355-20.859-20.855 0-11.501 9.359-20.856 20.859-20.856 11.501 0 20.859 9.354 20.859 20.856 0 11.5-9.355 20.855-20.859 20.855zm52.463 53.917c-11.047 0-20.034-8.983-20.034-20.034a5.009 5.009 0 1110.018 0c0 3.756 2.103 6.997 5.168 8.713a5.213 5.213 0 01-.161-1.2v-15.968l-10.388-.769a5.017 5.017 0 01-4.624-5.368c.208-2.762 2.625-4.809 5.367-4.624l14.654 1.086 14.653-1.086c2.821-.153 5.168 1.869 5.368 4.624a5.015 5.015 0 01-4.624 5.368l-10.389.769v15.968c0 .418-.065.812-.16 1.2 3.066-1.715 5.168-4.957 5.168-8.713a5.009 5.009 0 1110.018 0c0 11.051-8.984 20.034-20.034 20.034zm49.677-53.917c-11.498 0-20.859-9.355-20.859-20.855 0-11.501 9.362-20.856 20.859-20.856 11.501 0 20.859 9.354 20.859 20.856.001 11.5-9.358 20.855-20.859 20.855z"/><path d="M121.621 108.264c-5.977 0-10.842 4.861-10.842 10.838 0 5.977 4.865 10.839 10.842 10.839 5.978 0 10.842-4.862 10.842-10.839s-4.865-10.838-10.842-10.838z"/></g><path d="M374.819 154.021c0-4.15-1.465-7.324-4.394-9.521-2.93-2.246-8.203-4.59-15.821-7.031-7.617-2.49-13.647-4.932-18.09-7.324-12.11-6.543-18.164-15.357-18.164-26.441 0-5.762 1.611-10.889 4.834-15.38 3.271-4.542 7.934-8.082 13.989-10.62 6.103-2.54 12.939-3.81 20.508-3.81 7.617 0 14.404 1.392 20.361 4.175 5.957 2.735 10.571 6.617 13.843 11.646 3.32 5.03 4.98 10.742 4.98 17.139h-21.972c0-4.883-1.539-8.668-4.615-11.353-3.076-2.734-7.397-4.102-12.964-4.102-5.371 0-9.545 1.148-12.524 3.443-2.978 2.246-4.468 5.224-4.468 8.935 0 3.467 1.734 6.372 5.2 8.716 3.516 2.344 8.667 4.541 15.455 6.592 12.5 3.76 21.606 8.423 27.319 13.989 5.713 5.567 8.569 12.5 8.569 20.801 0 9.229-3.491 16.479-10.473 21.753-6.983 5.225-16.382 7.837-28.199 7.837-8.203 0-15.673-1.489-22.412-4.468-6.738-3.027-11.889-7.153-15.454-12.378-3.515-5.224-5.273-11.279-5.273-18.164H337.1c0 11.768 7.031 17.651 21.093 17.651 5.225 0 9.302-1.049 12.232-3.149 2.929-2.148 4.394-5.127 4.394-8.936zm106.934-10.913c0 12.207-2.783 21.997-8.35 29.371-5.517 7.324-12.988 10.986-22.412 10.986-8.008 0-14.477-2.783-19.409-8.35v37.354h-21.167V102.752h19.629l.732 7.764c5.127-6.153 11.817-9.229 20.069-9.229 9.765 0 17.358 3.613 22.778 10.84 5.42 7.227 8.13 17.187 8.13 29.883v1.098zm-21.167-1.538c0-7.373-1.318-13.061-3.955-17.065-2.588-4.004-6.372-6.006-11.353-6.006-6.64 0-11.206 2.539-13.696 7.617v32.446c2.588 5.225 7.202 7.837 13.843 7.837 10.107 0 15.161-8.276 15.161-24.829zM540.859 182c-.976-1.904-1.684-4.272-2.124-7.104-5.127 5.712-11.792 8.569-19.995 8.569-7.763 0-14.209-2.246-19.336-6.738-5.078-4.493-7.617-10.157-7.617-16.993 0-8.398 3.101-14.843 9.302-19.336 6.25-4.492 15.259-6.762 27.026-6.811h9.741v-4.541c0-3.662-.952-6.592-2.856-8.789-1.855-2.197-4.81-3.296-8.862-3.296-3.565 0-6.372.854-8.423 2.563-2.002 1.709-3.003 4.053-3.003 7.032h-21.167c0-4.59 1.416-8.838 4.248-12.744 2.832-3.907 6.836-6.958 12.012-9.156 5.175-2.246 10.986-3.369 17.431-3.369 9.766 0 17.505 2.466 23.218 7.398 5.762 4.882 8.643 11.767 8.643 20.654v34.35c.049 7.52 1.098 13.208 3.149 17.066V182h-21.387zm-17.505-14.722c3.125 0 6.006-.683 8.643-2.05 2.637-1.416 4.59-3.296 5.859-5.64v-13.623h-7.91c-10.595 0-16.235 3.662-16.919 10.986l-.073 1.245c0 2.637.928 4.81 2.783 6.519 1.856 1.709 4.395 2.563 7.617 2.563zm84.961-.879c3.907 0 7.081-1.074 9.522-3.222 2.441-2.149 3.711-5.005 3.809-8.57h19.848c-.049 5.372-1.514 10.303-4.394 14.795-2.881 4.444-6.836 7.91-11.866 10.401-4.98 2.441-10.498 3.662-16.552 3.662-11.328 0-20.264-3.589-26.807-10.767-6.543-7.226-9.814-17.187-9.814-29.883v-1.391c0-12.207 3.247-21.948 9.741-29.224 6.494-7.275 15.405-10.913 26.733-10.913 9.912 0 17.847 2.832 23.804 8.496 6.006 5.615 9.057 13.111 9.155 22.486h-19.848c-.098-4.102-1.368-7.422-3.809-9.961-2.441-2.588-5.664-3.882-9.668-3.882-4.932 0-8.667 1.806-11.206 5.42-2.49 3.564-3.735 9.375-3.735 17.431v2.198c0 8.154 1.245 14.013 3.735 17.578 2.49 3.564 6.274 5.346 11.352 5.346zm81.739 17.066c-11.621 0-21.094-3.565-28.418-10.694-7.276-7.128-10.913-16.625-10.913-28.491v-2.051c0-7.958 1.538-15.063 4.614-21.313 3.076-6.299 7.422-11.133 13.037-14.502 5.664-3.418 12.109-5.127 19.336-5.127 10.84 0 19.36 3.418 25.561 10.254 6.25 6.836 9.375 16.528 9.375 29.077v8.643h-50.463c.683 5.176 2.734 9.326 6.152 12.451 3.467 3.125 7.837 4.687 13.11 4.687 8.155 0 14.527-2.954 19.117-8.862l10.4 11.646c-3.174 4.492-7.471 8.007-12.891 10.546-5.42 2.491-11.425 3.736-18.017 3.736zm-2.417-65.039c-4.199 0-7.617 1.416-10.254 4.248-2.588 2.832-4.248 6.885-4.981 12.158h29.444v-1.685c-.098-4.687-1.367-8.3-3.809-10.839-2.441-2.588-5.908-3.882-10.4-3.882zm-351.4 185.052c-.83 11.474-5.078 20.507-12.744 27.099-7.617 6.592-17.676 9.888-30.176 9.888-13.671 0-24.438-4.59-32.299-13.77-7.813-9.228-11.719-21.875-11.719-37.939v-6.519c0-10.254 1.806-19.287 5.42-27.099 3.613-7.813 8.764-13.794 15.454-17.945 6.738-4.199 14.551-6.298 23.437-6.298 12.305 0 22.217 3.295 29.737 9.887 7.519 6.592 11.865 15.845 13.037 27.759h-21.973c-.537-6.885-2.466-11.865-5.786-14.941-3.271-3.125-8.276-4.688-15.015-4.688-7.324 0-12.817 2.637-16.479 7.91-3.613 5.225-5.469 13.355-5.567 24.39v8.057c0 11.523 1.734 19.946 5.201 25.268 3.515 5.322 9.033 7.984 16.552 7.984 6.787 0 11.841-1.539 15.162-4.615 3.369-3.125 5.297-7.934 5.786-14.428h21.972zM395.197 339c-.976-1.904-1.684-4.272-2.124-7.104-5.127 5.712-11.792 8.569-19.995 8.569-7.764 0-14.209-2.246-19.336-6.738-5.078-4.493-7.617-10.157-7.617-16.993 0-8.398 3.101-14.843 9.302-19.336 6.25-4.492 15.259-6.762 27.026-6.811h9.741v-4.541c0-3.662-.952-6.592-2.856-8.789-1.856-2.197-4.81-3.296-8.862-3.296-3.565 0-6.372.854-8.423 2.563-2.002 1.709-3.003 4.053-3.003 7.032h-21.167c0-4.59 1.416-8.838 4.248-12.744 2.832-3.907 6.836-6.958 12.012-9.156 5.175-2.246 10.986-3.369 17.431-3.369 9.766 0 17.505 2.466 23.218 7.398 5.762 4.882 8.643 11.767 8.643 20.654v34.35c.048 7.52 1.098 13.208 3.149 17.066V339h-21.387zm-17.505-14.722c3.125 0 6.006-.683 8.643-2.05 2.637-1.416 4.59-3.296 5.859-5.64v-13.623h-7.91c-10.596 0-16.235 3.662-16.919 10.986l-.073 1.245c0 2.637.928 4.81 2.783 6.519 1.856 1.709 4.395 2.563 7.617 2.563zm77.344-84.008v19.482h13.55v15.527h-13.55v39.551c0 2.93.562 5.029 1.685 6.299 1.123 1.269 3.271 1.904 6.445 1.904 2.344 0 4.419-.171 6.226-.512v16.04a43.597 43.597 0 01-12.818 1.904c-14.844 0-22.412-7.495-22.705-22.486v-42.7h-11.572v-15.527h11.572V240.27h21.167zm68.262 76.831c0-2.588-1.294-4.615-3.882-6.08-2.539-1.513-6.641-2.856-12.305-4.028-18.847-3.955-28.271-11.963-28.271-24.023 0-7.032 2.905-12.891 8.716-17.578 5.859-4.737 13.501-7.105 22.924-7.105 10.059 0 18.091 2.368 24.097 7.105 6.055 4.736 9.082 10.888 9.082 18.457h-21.167c0-3.028-.976-5.518-2.93-7.471-1.953-2.002-5.004-3.003-9.155-3.003-3.564 0-6.323.806-8.276 2.417-1.953 1.611-2.93 3.662-2.93 6.152 0 2.344 1.099 4.248 3.296 5.713 2.246 1.416 6.006 2.661 11.279 3.736 5.274 1.025 9.717 2.197 13.33 3.515 11.182 4.102 16.773 11.206 16.773 21.314 0 7.226-3.101 13.086-9.302 17.578-6.201 4.443-14.209 6.665-24.023 6.665-6.641 0-12.549-1.172-17.725-3.516-5.127-2.392-9.155-5.639-12.085-9.741-2.93-4.15-4.394-8.618-4.394-13.403h20.068c.195 3.759 1.587 6.64 4.175 8.642s6.054 3.003 10.4 3.003c4.053 0 7.105-.757 9.155-2.27 2.1-1.563 3.15-3.589 3.15-6.079z" fill="#000"/><defs><clipPath id="clip0"><path fill="#fff" d="M0 0h300v300H0z"/></clipPath></defs></svg>