<svg xmlns="http://www.w3.org/2000/svg" viewBox="0 0 455.731 455.731" width="512" height="512"><g fill="#373737"><path d="M228.071 95.321c-72.877 0-132.167 59.29-132.167 132.167 0 25.393 7.217 50.052 20.869 71.311l3.281 5.109-12.855 45.658 47.238-12.16 4.872 2.975c20.654 12.609 44.432 19.274 68.762 19.274 72.877 0 132.166-59.29 132.166-132.167S300.948 95.321 228.071 95.321zm81.046 172.788l-1.649 7.702c-1.86 8.69-7.021 16.377-14.508 21.166-9.453 6.047-21.706 9.016-37.28 4.612-48.333-13.667-75.667-45.667-90.333-65.667-14.667-20-20.333-40-16.667-56.333 2.459-10.954 10.465-19.359 15.472-23.708a12.492 12.492 0 018.878-3.037l10.328.563a5.352 5.352 0 014.629 3.24l15.045 35.201a5.35 5.35 0 01-.872 5.602l-13.096 15.15a3.959 3.959 0 00-.499 4.419c17.248 33.224 48.682 46.389 58.066 49.687a3.92 3.92 0 004.407-1.312l13.703-17.764a5.35 5.35 0 016.477-1.591l34.905 16.089a5.352 5.352 0 012.994 5.981z"/><path d="M0 0v455.731h455.731V0H0zm228.071 386.655c-27.347 0-54.125-7-77.814-20.292L68.494 387.41l22.323-79.284c-14.355-24.387-21.913-52.134-21.913-80.638 0-87.765 71.402-159.167 159.167-159.167s159.166 71.402 159.166 159.167-71.401 159.167-159.166 159.167z"/></g></svg>