<svg xmlns="http://www.w3.org/2000/svg" viewBox="0 0 455.731 455.731" width="512" height="512"><g fill="#373737"><path d="M0 0v455.731h455.731V0H0zm306.808 384.297a84.042 84.042 0 01-42.588-11.532 147.043 147.043 0 01-28.107 2.708c-80.82 0-146.338-65.518-146.338-146.338 0-9.615.938-19.01 2.708-28.107a84.047 84.047 0 01-11.532-42.588c0-46.65 37.817-84.467 84.467-84.467a84.058 84.058 0 0142.589 11.532 147.043 147.043 0 0128.107-2.708c80.82 0 146.338 65.518 146.338 146.338 0 9.615-.938 19.01-2.708 28.107a84.047 84.047 0 0111.532 42.588c-.001 46.65-37.818 84.467-84.468 84.467z"/><path d="M247.392 206.635c-54-10.5-57.5-27-44.5-38.5s51.642-16.665 62.5 3.5c10.5 19.5 18 27.5 32.5 24 13.833-3.339 15.833-22.5 10-34-4.707-9.279-26-33-68-33s-86 15.5-86 54 40 55.5 78.5 61 47.5 22 42.5 34-21.5 23.5-46.5 21-36.535-23.433-40-34c-3.333-10.167-15-11.5-20.5-11s-23 7.5-15 32 34 44 86 44 82.5-32 82.5-62.5-20-50-74-60.5z"/></g></svg>