<svg xmlns="http://www.w3.org/2000/svg" xmlns:xlink="http://www.w3.org/1999/xlink"><symbol id="sprite-icon-skype-team" viewBox="0 0 455.731 455.731"><g fill="#373737"><path d="M0 0v455.731h455.731V0H0zm306.808 384.297a84.042 84.042 0 01-42.588-11.532 147.043 147.043 0 01-28.107 2.708c-80.82 0-146.338-65.518-146.338-146.338 0-9.615.938-19.01 2.708-28.107a84.047 84.047 0 01-11.532-42.588c0-46.65 37.817-84.467 84.467-84.467a84.058 84.058 0 0142.589 11.532 147.043 147.043 0 0128.107-2.708c80.82 0 146.338 65.518 146.338 146.338 0 9.615-.938 19.01-2.708 28.107a84.047 84.047 0 0111.532 42.588c-.001 46.65-37.818 84.467-84.468 84.467z"/><path d="M247.392 206.635c-54-10.5-57.5-27-44.5-38.5s51.642-16.665 62.5 3.5c10.5 19.5 18 27.5 32.5 24 13.833-3.339 15.833-22.5 10-34-4.707-9.279-26-33-68-33s-86 15.5-86 54 40 55.5 78.5 61 47.5 22 42.5 34-21.5 23.5-46.5 21-36.535-23.433-40-34c-3.333-10.167-15-11.5-20.5-11s-23 7.5-15 32 34 44 86 44 82.5-32 82.5-62.5-20-50-74-60.5z"/></g></symbol><symbol id="sprite-icon-telegram-team" viewBox="0 0 455.731 455.731"><g fill="#373737"><path d="M316.244 149.903L149.082 253.579a7.605 7.605 0 00-3.255 8.717l22.423 72.253c.471 1.518 2.683 1.309 2.861-.271l5.45-48.448a7.603 7.603 0 012.519-4.847l141.556-125.177c3.389-2.996-.547-8.288-4.392-5.903z"/><path d="M0 0v455.731h455.731V0H0zm379.882 118.418l-52.031 248.76c-2.442 11.673-16.133 16.916-25.747 9.859l-78.559-57.665-40.039 40.881c-7.027 7.175-19.166 4.271-22.185-5.308l-28.901-91.706-77.441-22.868c-10.16-3-10.759-17.165-.888-21.012L358.844 100.6c11.6-4.52 23.587 5.632 21.038 17.818z"/></g></symbol><symbol id="sprite-icon-viber-team" viewBox="0 0 455.731 455.731"><g fill="#373737"><path d="M296.076 105.381c-45.26-8.61-91.16-8.61-136.43 0-19.8 4.41-44.71 28.28-49.58 47.48-8.1 37.15-8.1 74.81 0 111.96 4.87 19.2 29.78 43.07 49.58 47.48l.015.003a1.876 1.876 0 011.525 1.836v54.422c0 2.72 3.32 4.06 5.21 2.09l25.85-26.53 24.303-24.948a1.853 1.853 0 011.38-.559c26.099.723 52.226-1.385 78.147-6.313 19.8-4.41 44.72-28.28 49.58-47.48 8.11-37.15 8.11-74.81 0-111.96-4.861-19.201-29.77-43.071-49.58-47.481zm.69 162.211c-3.96 8.408-9.722 15.403-18.034 19.868-2.345 1.26-5.148 1.667-7.795 2.482-3.044-.924-5.945-1.545-8.639-2.663-27.916-11.582-53.608-26.524-73.959-49.429-11.573-13.025-20.632-27.73-28.288-43.292-3.631-7.38-6.691-15.049-9.81-22.668-2.845-6.948 1.345-14.126 5.756-19.361 4.139-4.913 9.465-8.673 15.233-11.444 4.502-2.163 8.943-.916 12.231 2.9 7.108 8.25 13.637 16.922 18.924 26.485 3.251 5.882 2.359 13.072-3.533 17.075-1.432.973-2.737 2.115-4.071 3.214-1.17.963-2.271 1.936-3.073 3.24-1.466 2.385-1.536 5.2-.592 7.794 7.266 19.968 19.513 35.495 39.611 43.858 3.217 1.338 6.446 2.896 10.151 2.464 6.205-.725 8.214-7.531 12.562-11.087 4.25-3.475 9.681-3.521 14.259-.624 4.579 2.898 9.018 6.009 13.43 9.153 4.331 3.086 8.643 6.105 12.638 9.623 3.839 3.382 5.162 7.82 2.999 12.412zm-36.044-65.069c-1.733.031-1.052-.003-.393-.022-2.793-.098-4.312-1.742-4.612-4.415-.219-1.953-.392-3.932-.858-5.832-.918-3.742-2.907-7.21-6.054-9.503-1.486-1.083-3.17-1.873-4.934-2.381-2.241-.647-4.568-.469-6.804-1.017-2.428-.594-3.771-2.561-3.39-4.839.347-2.073 2.364-3.691 4.629-3.527 14.157 1.022 24.275 8.341 25.719 25.008.102 1.176.222 2.418-.039 3.543-.424 1.829-1.731 2.781-3.052 2.954.108.002.087.011-.212.031zm-8.803-38.119c-4.344-2.127-9.042-3.449-13.804-4.237-2.081-.344-4.184-.553-6.275-.844-2.534-.352-3.886-1.967-3.767-4.464.112-2.34 1.822-4.023 4.372-3.879 8.38.476 16.474 2.287 23.924 6.232 15.15 8.023 23.804 20.687 26.33 37.597.115.766.298 1.525.356 2.294.144 1.898.233 3.799.379 6.302-.06.456-.092 1.528-.358 2.538-.969 3.666-6.527 4.125-7.807.425-.379-1.098-.436-2.347-.438-3.529-.013-7.734-1.694-15.46-5.594-22.189-4.009-6.914-10.135-12.728-17.318-16.246zm46.812 52.261c-2.927.035-4.244-2.414-4.434-5.039-.376-5.196-.636-10.415-1.353-15.568-3.78-27.201-25.47-49.705-52.544-54.534-4.074-.727-8.245-.918-12.371-1.351-2.609-.274-6.026-.432-6.604-3.675-.485-2.719 1.81-4.884 4.399-5.023.704-.038 1.412-.006 2.119-.003 35.065.983 2.14.076.094.005 36.472 1.063 66.417 25.283 72.839 61.351 1.095 6.151 1.485 12.44 1.972 18.683.204 2.625-1.283 5.12-4.117 5.154z"/><path d="M0 0v455.731h455.731V0H0zm371.996 270.781l-.09.36c-7.28 29.43-40.1 61.01-70.24 67.58l-.34.07c-24.37 4.65-48.92 6.97-73.46 6.97-7.223 0-14.446-.225-21.665-.629l-33.285 34.599c-8.24 8.58-22.73 2.74-22.73-9.15v-32.852c-29.015-8.286-59.391-38.414-66.37-66.589l-.08-.36c-9-41.1-9-82.78 0-123.88l.08-.36c7.29-29.43 40.11-61.01 70.24-67.58l.35-.07c48.74-9.3 98.17-9.3 146.92 0l.34.07c30.14 6.57 62.96 38.15 70.24 67.58l.09.36c9 41.101 9 82.781 0 123.881z"/></g></symbol><symbol id="sprite-icon-vk-team" viewBox="0 0 455.731 455.731"><path d="M0 0v455.731h455.731V0H0zm365.342 252.874c10.995 11.342 22.766 21.954 33.414 33.605 7.738 8.477 14.9 17.674 21.032 27.355 7.756 12.245 2.965 23.778-11.524 25.832-9.115 1.286-53.641.01-55.942 0-11.971-.054-22.464-4.207-30.914-12.336-9.398-9.052-17.939-18.979-26.963-28.423-2.719-2.847-5.621-5.575-8.75-7.957-7.382-5.63-14.627-4.38-18.076 4.289-2.947 7.446-5.493 27-5.612 28.669-.62 8.732-6.177 14.298-15.959 14.836-28.24 1.533-55.605-1.615-81.098-15.274-21.607-11.57-38.861-27.93-53.807-47.009-23.742-30.304-42.495-63.615-59.616-97.904-.875-1.753-18.216-38.653-18.682-40.396-1.549-5.836-.104-11.411 4.827-13.33 3.074-1.197 60.248-.004 61.199.047 9.123.493 15.345 4.342 19.187 13.812 10.922 26.972 24.764 52.402 42.995 75.231 2.418 3.039 5.466 5.739 8.677 7.938 4.69 3.221 9.115 2.089 11.022-3.276 2.017-5.63 3.868-17.04 3.978-22.952.301-15.448-.045-25.572-.875-41.001-.538-9.882-4.051-18.559-18.587-21.178-4.489-.812-4.906-4.507-2.022-8.193 6.004-7.674 14.368-8.897 23.438-9.381 14.7-.794 29.454-.146 44.172 0 5.995.055 12.026.538 17.93 1.825 7.701 1.679 11.825 7.081 13.094 14.599.657 3.878.995 7.865.903 11.789-.383 16.862-1.195 33.715-1.387 50.568-.082 6.615.401 13.395 1.816 19.837 1.98 8.979 8.093 11.232 14.344 4.745 7.938-8.24 14.937-17.51 21.506-26.926 11.935-17.127 20.849-35.923 28.523-55.303 3.969-10 7.008-12.172 17.765-12.199 20.22-.046 40.44-.064 60.66 0 3.586.018 7.336.356 10.721 1.432 5.493 1.752 7.674 6.232 6.387 11.917-3.002 13.322-10.201 24.645-17.911 35.531-12.373 17.464-25.339 34.509-38.003 51.772-1.615 2.199-3.038 4.544-4.362 6.926-4.735 8.557-4.407 13.356 2.5 20.483z" fill="#373737"/></symbol><symbol id="sprite-icon-whatsapp-team" viewBox="0 0 455.731 455.731"><g fill="#373737"><path d="M228.071 95.321c-72.877 0-132.167 59.29-132.167 132.167 0 25.393 7.217 50.052 20.869 71.311l3.281 5.109-12.855 45.658 47.238-12.16 4.872 2.975c20.654 12.609 44.432 19.274 68.762 19.274 72.877 0 132.166-59.29 132.166-132.167S300.948 95.321 228.071 95.321zm81.046 172.788l-1.649 7.702c-1.86 8.69-7.021 16.377-14.508 21.166-9.453 6.047-21.706 9.016-37.28 4.612-48.333-13.667-75.667-45.667-90.333-65.667-14.667-20-20.333-40-16.667-56.333 2.459-10.954 10.465-19.359 15.472-23.708a12.492 12.492 0 018.878-3.037l10.328.563a5.352 5.352 0 014.629 3.24l15.045 35.201a5.35 5.35 0 01-.872 5.602l-13.096 15.15a3.959 3.959 0 00-.499 4.419c17.248 33.224 48.682 46.389 58.066 49.687a3.92 3.92 0 004.407-1.312l13.703-17.764a5.35 5.35 0 016.477-1.591l34.905 16.089a5.352 5.352 0 012.994 5.981z"/><path d="M0 0v455.731h455.731V0H0zm228.071 386.655c-27.347 0-54.125-7-77.814-20.292L68.494 387.41l22.323-79.284c-14.355-24.387-21.913-52.134-21.913-80.638 0-87.765 71.402-159.167 159.167-159.167s159.166 71.402 159.166 159.167-71.401 159.167-159.166 159.167z"/></g></symbol></svg>